<?xml version="1.0" standalone="no"?>
<!DOCTYPE svg PUBLIC "-//W3C//DTD SVG 20010904//EN"
 "http://www.w3.org/TR/2001/REC-SVG-20010904/DTD/svg10.dtd">
<svg version="1.0" xmlns="http://www.w3.org/2000/svg"
 width="750.000000pt" height="750.000000pt" viewBox="0 0 750.000000 750.000000"
 preserveAspectRatio="xMidYMid meet">
<metadata>
Created by potrace 1.11, written by Peter Selinger 2001-2013
</metadata>
<g transform="translate(0.000000,750.000000) scale(0.100000,-0.100000)"
fill="#000000" stroke="none">
<path d="M3813 6628 c-6 -7 -74 -125 -153 -263 -79 -137 -205 -356 -280 -485
-75 -129 -183 -316 -240 -415 -56 -99 -136 -238 -178 -308 l-75 -129 564 -564
c310 -310 571 -564 579 -564 15 0 66 35 484 323 l198 137 184 0 c101 0 184 -3
184 -6 0 -3 -80 -124 -177 -267 -428 -632 -481 -712 -477 -716 2 -2 99 59 216
137 l213 141 257 3 c141 2 259 0 263 -3 3 -4 -56 -96 -133 -205 -76 -110 -271
-388 -432 -619 -161 -231 -344 -492 -405 -580 -62 -88 -194 -279 -295 -425
-100 -146 -186 -269 -191 -274 -5 -6 -18 2 -31 20 -42 53 -569 698 -658 804
-48 58 -154 188 -236 290 -82 102 -217 269 -300 370 -172 210 -381 466 -863
1055 -184 226 -376 460 -426 520 -50 61 -168 205 -262 320 -94 116 -202 248
-241 295 l-71 85 319 5 c175 3 321 8 325 12 4 3 -15 19 -42 35 l-48 28 -290 3
c-181 2 -300 -1 -317 -7 -15 -6 -35 -22 -44 -36 -16 -25 -16 -28 3 -68 11 -23
112 -154 225 -292 112 -137 405 -496 651 -797 283 -346 447 -555 447 -569 0
-20 -54 -116 -560 -989 -119 -206 -262 -454 -318 -550 -55 -96 -157 -272 -226
-390 -135 -232 -134 -228 -58 -229 27 -1 32 -5 32 -25 0 -34 23 -54 73 -61 23
-3 1307 -5 2853 -3 2314 2 2814 5 2827 16 9 8 17 26 19 40 2 21 9 28 31 30 15
2 27 6 27 9 0 10 -354 636 -1205 2133 -111 195 -235 414 -275 485 -40 72 -164
290 -275 485 -111 195 -320 564 -465 820 -477 841 -702 1235 -709 1243 -4 4
-12 2 -18 -5z"/>
<path d="M1969 5365 c-63 -34 -42 -89 102 -270 172 -215 475 -599 482 -612 4
-7 -1 -30 -13 -52 -11 -22 -20 -47 -20 -54 0 -8 20 -33 45 -55 24 -22 259
-248 521 -503 441 -430 514 -498 514 -485 0 2 -63 85 -141 183 -288 364 -755
952 -1152 1451 -141 177 -257 327 -257 332 0 6 93 10 248 10 l247 1 -28 24
c-43 38 -89 45 -312 45 -162 -1 -216 -4 -236 -15z"/>
</g>
</svg>
